<?xml version="1.0" encoding="UTF-8" standalone="no"?>
<svg
   version="1.1"
   id="Layer_1"
   viewBox="0 0 392.663 392.663"
   xml:space="preserve"
   sodipodi:docname="truck-logo.svg"
   inkscape:version="1.3 (0e150ed6c4, 2023-07-21)"
   xmlns:inkscape="http://www.inkscape.org/namespaces/inkscape"
   xmlns:sodipodi="http://sodipodi.sourceforge.net/DTD/sodipodi-0.dtd"
   xmlns="http://www.w3.org/2000/svg"
   xmlns:svg="http://www.w3.org/2000/svg"><defs
   id="defs5" /><sodipodi:namedview
   id="namedview5"
   pagecolor="#ffffff"
   bordercolor="#666666"
   borderopacity="1.0"
   inkscape:showpageshadow="2"
   inkscape:pageopacity="0.0"
   inkscape:pagecheckerboard="0"
   inkscape:deskcolor="#d1d1d1"
   inkscape:zoom="3.9117514"
   inkscape:cx="196.3315"
   inkscape:cy="196.3315"
   inkscape:window-width="2743"
   inkscape:window-height="1750"
   inkscape:window-x="-9"
   inkscape:window-y="-9"
   inkscape:window-maximized="1"
   inkscape:current-layer="Layer_1" />&#10;<polygon
   style="fill:#FFFFFF;"
   points="370.812,235.475 370.812,148.525 321.422,75.669 267.119,75.669 267.119,235.475 "
   id="polygon1" />&#10;<polyline
   style="fill:#56ACE0;"
   points="370.812,313.05 370.812,257.325 21.851,257.325 21.851,313.05 "
   id="polyline1" />&#10;<g
   id="g2">&#10;	<path
   style="fill:#FFC10D;"
   d="M94.642,296.048c-20.622,0-37.301,16.743-37.301,37.301c0,20.622,16.743,37.301,37.301,37.301   s37.301-16.743,37.301-37.301C131.943,312.857,115.2,296.048,94.642,296.048z"
   id="path1" />&#10;	<path
   style="fill:#FFC10D;"
   d="M298.02,296.048c-20.622,0-37.301,16.743-37.301,37.301c0,20.622,16.743,37.301,37.301,37.301   c20.622,0,37.301-16.743,37.301-37.301C335.451,312.857,318.642,296.048,298.02,296.048z"
   id="path2" />&#10;</g>&#10;<rect
   x="21.851"
   y="21.818"
   style="fill:#FFFFFF;"
   width="223.483"
   height="213.657"
   id="rect2" />&#10;<polygon
   style="fill:#56ACE0;"
   points="288.905,155.248 288.905,97.455 309.85,97.455 349.026,155.248 349.026,155.248 "
   id="polygon2" />&#10;<path
   style="fill:#FFC10D;"
   d="M43.636,43.669v10.214h64.453c6.012,0,10.925,4.848,10.925,10.925  c0,6.012-4.848,10.925-10.925,10.925H43.636v28.768h31.741c6.012,0,10.925,4.848,10.925,10.925c0,6.012-4.848,10.925-10.925,10.925  H43.636v87.402h179.846V43.733H43.636V43.669z"
   id="path3" />&#10;<g
   id="g5">&#10;	<path
   style="fill:#194F82;"
   d="M390.723,139.087l-54.497-80.485c-2.004-3.038-5.43-4.784-9.051-4.784h-60.057V10.958   c0-6.012-4.848-10.925-10.925-10.925H10.925C4.913,0.032,0,4.881,0,10.958v313.018c0,6.012,4.848,10.925,10.925,10.925h24.566   c0.776,32,26.958,57.729,59.087,57.729s58.311-25.794,59.087-57.729h85.333c0.776,32,26.958,57.729,59.087,57.729   s58.311-25.794,59.087-57.729h24.566c6.012,0,10.925-4.848,10.925-10.925V145.228C392.598,143.03,392.016,140.897,390.723,139.087z    M21.851,21.818h223.483v213.657H21.851V21.818z M94.642,370.78c-20.622,0-37.301-16.743-37.301-37.301   c0-20.622,16.743-37.301,37.301-37.301s37.301,16.743,37.301,37.301C131.943,354.036,115.2,370.78,94.642,370.78z M298.02,370.78   c-20.622,0-37.301-16.743-37.301-37.301c0-20.622,16.743-37.301,37.301-37.301c20.622,0,37.301,16.743,37.301,37.301   C335.451,354.036,318.642,370.78,298.02,370.78z M370.812,313.05h-17.325c-8.339-22.562-29.996-38.788-55.467-38.788   s-47.127,16.162-55.467,38.788h-92.444c-8.339-22.562-29.996-38.788-55.467-38.788s-47.127,16.162-55.467,38.788H21.851v-55.725   h348.962L370.812,313.05L370.812,313.05z M370.812,235.475H267.119V75.669h54.238l49.39,72.921v86.885H370.812z"
   id="path4" />&#10;	<path
   style="fill:#194F82;"
   d="M293.754,166.626c-6.012,0-10.925,4.848-10.925,10.925c0,6.012,4.848,10.925,10.925,10.925h25.212   c6.012,0,10.925-4.848,10.925-10.925c0-6.012-4.848-10.925-10.925-10.925H293.754z"
   id="path5" />&#10;</g>&#10;</svg>
