<?xml version="1.0" standalone="no"?>
<!DOCTYPE svg PUBLIC "-//W3C//DTD SVG 20010904//EN"
 "http://www.w3.org/TR/2001/REC-SVG-20010904/DTD/svg10.dtd">
<svg version="1.0" xmlns="http://www.w3.org/2000/svg"
 width="700.000000pt" height="700.000000pt" viewBox="0 0 700.000000 700.000000"
 preserveAspectRatio="xMidYMid meet">
<metadata>
Created by potrace 1.14, written by Peter Selinger 2001-2017
</metadata>
<g transform="translate(0.000000,700.000000) scale(0.100000,-0.100000)"
fill="#000000" stroke="none">
<path d="M115 6981 c-48 -22 -79 -54 -100 -103 -13 -33 -15 -335 -15 -2865 0
-2728 1 -2829 19 -2868 22 -48 54 -79 103 -100 30 -12 83 -15 272 -15 l235 0
6 -58 c27 -252 123 -465 291 -641 140 -148 306 -246 502 -298 85 -23 117 -26
257 -26 142 0 172 3 260 26 431 115 747 485 790 925 l7 72 758 0 758 0 7 -72
c24 -238 142 -488 309 -651 129 -127 305 -227 481 -274 88 -23 118 -26 260
-26 140 0 172 3 256 26 179 47 340 137 467 261 197 191 288 382 327 689 l6 47
237 0 c257 0 288 6 339 61 56 61 53 -43 53 1726 0 1557 -1 1630 -19 1668 -17
37 -973 1457 -1010 1499 -9 10 -34 27 -56 37 -37 17 -78 19 -597 19 l-558 0 0
403 c0 369 -2 405 -19 442 -22 48 -54 79 -103 100 -33 13 -276 15 -2260 15
-2140 0 -2224 -1 -2263 -19z m4255 -2276 l0 -1905 -1990 0 -1990 0 0 1905 0
1905 1990 0 1990 0 0 -1905z m1801 295 l438 -645 0 -777 1 -778 -925 0 -925 0
0 1425 0 1425 486 -2 487 -3 438 -645z m-4293 -3311 c167 -51 325 -185 401
-339 194 -397 -35 -860 -469 -946 -264 -52 -541 69 -684 300 -165 265 -127
596 94 816 104 105 233 169 385 193 57 10 206 -4 273 -24z m3603 6 c187 -49
339 -174 424 -350 55 -114 69 -176 69 -295 -1 -184 -59 -325 -189 -456 -49
-49 -105 -95 -145 -117 -342 -187 -760 -54 -925 295 -119 249 -72 536 120 737
105 109 226 175 369 201 68 12 199 5 277 -15z"/>
<path d="M5150 4750 l0 -510 530 0 531 0 -175 258 c-95 141 -250 370 -344 507
l-169 250 -187 3 -186 2 0 -510z"/>
<path d="M5172 4019 c-49 -14 -106 -77 -122 -134 -25 -89 19 -183 103 -224 41
-20 59 -21 305 -21 214 0 269 3 300 15 161 68 161 292 0 360 -31 12 -84 15
-295 14 -142 0 -273 -5 -291 -10z"/>
</g>
</svg>
